<mxfile host="app.diagrams.net" modified="2021-02-19T03:00:18.978Z" agent="5.0 (Windows NT 10.0; Win64; x64) AppleWebKit/537.36 (KHTML, like Gecko) Chrome/88.0.4324.150 Safari/537.36" etag="QlEeseUW3HZldVoTVG4Q" version="14.4.2" type="github">
  <diagram id="zeUrr2bmTQDtOX-3o3p2" name="Page-1">
    <mxGraphModel dx="1038" dy="580" grid="1" gridSize="10" guides="1" tooltips="1" connect="1" arrows="1" fold="1" page="1" pageScale="1" pageWidth="850" pageHeight="1100" math="0" shadow="0">
      <root>
        <mxCell id="0" />
        <mxCell id="1" parent="0" />
        <mxCell id="XGpEZq29i89sVaL7zDD6-1" value="Sinh viên" style="rounded=0;whiteSpace=wrap;html=1;fillColor=#dae8fc;strokeColor=#6c8ebf;" vertex="1" parent="1">
          <mxGeometry x="180" y="390" width="120" height="60" as="geometry" />
        </mxCell>
        <mxCell id="XGpEZq29i89sVaL7zDD6-2" value="Giảng viên" style="rounded=0;whiteSpace=wrap;html=1;fillColor=#dae8fc;strokeColor=#6c8ebf;" vertex="1" parent="1">
          <mxGeometry x="585" y="400" width="120" height="60" as="geometry" />
        </mxCell>
        <mxCell id="XGpEZq29i89sVaL7zDD6-4" value="Mã GV" style="ellipse;whiteSpace=wrap;html=1;fillColor=#fff2cc;strokeColor=#d6b656;" vertex="1" parent="1">
          <mxGeometry x="460" y="490" width="110" height="60" as="geometry" />
        </mxCell>
        <mxCell id="XGpEZq29i89sVaL7zDD6-5" value="Họ và tên" style="ellipse;whiteSpace=wrap;html=1;fillColor=#fff2cc;strokeColor=#d6b656;" vertex="1" parent="1">
          <mxGeometry x="595" y="500" width="110" height="60" as="geometry" />
        </mxCell>
        <mxCell id="XGpEZq29i89sVaL7zDD6-6" value="Ngày sinh" style="ellipse;whiteSpace=wrap;html=1;fillColor=#fff2cc;strokeColor=#d6b656;" vertex="1" parent="1">
          <mxGeometry x="720" y="490" width="110" height="60" as="geometry" />
        </mxCell>
        <mxCell id="XGpEZq29i89sVaL7zDD6-9" value="" style="endArrow=none;html=1;exitX=0.5;exitY=0;exitDx=0;exitDy=0;" edge="1" parent="1" source="XGpEZq29i89sVaL7zDD6-5" target="XGpEZq29i89sVaL7zDD6-2">
          <mxGeometry width="50" height="50" relative="1" as="geometry">
            <mxPoint x="600" y="500" as="sourcePoint" />
            <mxPoint x="650" y="450" as="targetPoint" />
          </mxGeometry>
        </mxCell>
        <mxCell id="XGpEZq29i89sVaL7zDD6-10" value="" style="endArrow=none;html=1;exitX=0.5;exitY=0;exitDx=0;exitDy=0;entryX=0.5;entryY=1;entryDx=0;entryDy=0;" edge="1" parent="1" source="XGpEZq29i89sVaL7zDD6-6" target="XGpEZq29i89sVaL7zDD6-2">
          <mxGeometry width="50" height="50" relative="1" as="geometry">
            <mxPoint x="660" y="510" as="sourcePoint" />
            <mxPoint x="650" y="420" as="targetPoint" />
          </mxGeometry>
        </mxCell>
        <mxCell id="XGpEZq29i89sVaL7zDD6-11" value="" style="endArrow=none;html=1;exitX=0.5;exitY=0;exitDx=0;exitDy=0;entryX=0.5;entryY=1;entryDx=0;entryDy=0;" edge="1" parent="1" source="XGpEZq29i89sVaL7zDD6-4" target="XGpEZq29i89sVaL7zDD6-2">
          <mxGeometry width="50" height="50" relative="1" as="geometry">
            <mxPoint x="640" y="500" as="sourcePoint" />
            <mxPoint x="640" y="410" as="targetPoint" />
          </mxGeometry>
        </mxCell>
        <mxCell id="XGpEZq29i89sVaL7zDD6-12" value="Lớp" style="rounded=0;whiteSpace=wrap;html=1;fillColor=#dae8fc;strokeColor=#6c8ebf;" vertex="1" parent="1">
          <mxGeometry x="180" y="100" width="120" height="60" as="geometry" />
        </mxCell>
        <mxCell id="XGpEZq29i89sVaL7zDD6-15" style="edgeStyle=orthogonalEdgeStyle;rounded=0;orthogonalLoop=1;jettySize=auto;html=1;entryX=0.5;entryY=1;entryDx=0;entryDy=0;strokeColor=none;" edge="1" parent="1" source="XGpEZq29i89sVaL7zDD6-13" target="XGpEZq29i89sVaL7zDD6-12">
          <mxGeometry relative="1" as="geometry" />
        </mxCell>
        <mxCell id="XGpEZq29i89sVaL7zDD6-13" value="Thuộc" style="rhombus;whiteSpace=wrap;html=1;" vertex="1" parent="1">
          <mxGeometry x="200" y="240" width="80" height="80" as="geometry" />
        </mxCell>
        <mxCell id="XGpEZq29i89sVaL7zDD6-14" value="" style="endArrow=none;html=1;exitX=0.5;exitY=0;exitDx=0;exitDy=0;entryX=0.5;entryY=1;entryDx=0;entryDy=0;" edge="1" parent="1" source="XGpEZq29i89sVaL7zDD6-1" target="XGpEZq29i89sVaL7zDD6-13">
          <mxGeometry width="50" height="50" relative="1" as="geometry">
            <mxPoint x="130" y="370" as="sourcePoint" />
            <mxPoint x="180" y="320" as="targetPoint" />
          </mxGeometry>
        </mxCell>
        <mxCell id="XGpEZq29i89sVaL7zDD6-16" value="" style="endArrow=none;html=1;exitX=0.5;exitY=0;exitDx=0;exitDy=0;" edge="1" parent="1" source="XGpEZq29i89sVaL7zDD6-13" target="XGpEZq29i89sVaL7zDD6-12">
          <mxGeometry width="50" height="50" relative="1" as="geometry">
            <mxPoint x="179.5" y="240" as="sourcePoint" />
            <mxPoint x="179.5" y="170" as="targetPoint" />
          </mxGeometry>
        </mxCell>
        <mxCell id="XGpEZq29i89sVaL7zDD6-17" value="Lớp trưởng" style="rhombus;whiteSpace=wrap;html=1;" vertex="1" parent="1">
          <mxGeometry x="50" y="240" width="80" height="80" as="geometry" />
        </mxCell>
        <mxCell id="XGpEZq29i89sVaL7zDD6-18" value="" style="endArrow=none;html=1;entryX=0;entryY=0.5;entryDx=0;entryDy=0;exitX=0.5;exitY=1;exitDx=0;exitDy=0;" edge="1" parent="1" source="XGpEZq29i89sVaL7zDD6-17" target="XGpEZq29i89sVaL7zDD6-1">
          <mxGeometry width="50" height="50" relative="1" as="geometry">
            <mxPoint x="90" y="470" as="sourcePoint" />
            <mxPoint x="150" y="410" as="targetPoint" />
            <Array as="points">
              <mxPoint x="90" y="420" />
            </Array>
          </mxGeometry>
        </mxCell>
        <mxCell id="XGpEZq29i89sVaL7zDD6-19" value="" style="endArrow=none;html=1;entryX=0.5;entryY=0;entryDx=0;entryDy=0;exitX=0;exitY=0.5;exitDx=0;exitDy=0;" edge="1" parent="1" source="XGpEZq29i89sVaL7zDD6-12" target="XGpEZq29i89sVaL7zDD6-17">
          <mxGeometry width="50" height="50" relative="1" as="geometry">
            <mxPoint x="90" y="110" as="sourcePoint" />
            <mxPoint x="180" y="210" as="targetPoint" />
            <Array as="points">
              <mxPoint x="90" y="130" />
              <mxPoint x="90" y="210" />
            </Array>
          </mxGeometry>
        </mxCell>
        <mxCell id="XGpEZq29i89sVaL7zDD6-20" value="Mã SV" style="ellipse;whiteSpace=wrap;html=1;fillColor=#fff2cc;strokeColor=#d6b656;" vertex="1" parent="1">
          <mxGeometry x="50" y="490" width="110" height="60" as="geometry" />
        </mxCell>
        <mxCell id="XGpEZq29i89sVaL7zDD6-21" value="Họ và tên" style="ellipse;whiteSpace=wrap;html=1;fillColor=#fff2cc;strokeColor=#d6b656;" vertex="1" parent="1">
          <mxGeometry x="185" y="500" width="110" height="60" as="geometry" />
        </mxCell>
        <mxCell id="XGpEZq29i89sVaL7zDD6-22" value="Ngày sinh" style="ellipse;whiteSpace=wrap;html=1;fillColor=#fff2cc;strokeColor=#d6b656;" vertex="1" parent="1">
          <mxGeometry x="310" y="490" width="110" height="60" as="geometry" />
        </mxCell>
        <mxCell id="XGpEZq29i89sVaL7zDD6-23" value="" style="endArrow=none;html=1;exitX=0.5;exitY=0;exitDx=0;exitDy=0;entryX=0.5;entryY=1;entryDx=0;entryDy=0;" edge="1" parent="1" source="XGpEZq29i89sVaL7zDD6-21" target="XGpEZq29i89sVaL7zDD6-1">
          <mxGeometry width="50" height="50" relative="1" as="geometry">
            <mxPoint x="190" y="500" as="sourcePoint" />
            <mxPoint x="237.1428571428571" y="460" as="targetPoint" />
          </mxGeometry>
        </mxCell>
        <mxCell id="XGpEZq29i89sVaL7zDD6-24" value="" style="endArrow=none;html=1;exitX=0.5;exitY=0;exitDx=0;exitDy=0;entryX=0.5;entryY=1;entryDx=0;entryDy=0;" edge="1" parent="1" source="XGpEZq29i89sVaL7zDD6-22" target="XGpEZq29i89sVaL7zDD6-1">
          <mxGeometry width="50" height="50" relative="1" as="geometry">
            <mxPoint x="250" y="510" as="sourcePoint" />
            <mxPoint x="235" y="460" as="targetPoint" />
          </mxGeometry>
        </mxCell>
        <mxCell id="XGpEZq29i89sVaL7zDD6-25" value="" style="endArrow=none;html=1;exitX=0.5;exitY=0;exitDx=0;exitDy=0;entryX=0.5;entryY=1;entryDx=0;entryDy=0;" edge="1" parent="1" source="XGpEZq29i89sVaL7zDD6-20" target="XGpEZq29i89sVaL7zDD6-1">
          <mxGeometry width="50" height="50" relative="1" as="geometry">
            <mxPoint x="230" y="500" as="sourcePoint" />
            <mxPoint x="235" y="460" as="targetPoint" />
          </mxGeometry>
        </mxCell>
      </root>
    </mxGraphModel>
  </diagram>
</mxfile>
